# xmcd
#
# Track frame offsets:
#	150
#	15114
#	35428
#	49330
#	62744
#	84653
#	105573
#	122525
#	142665
#	155368
#	178008
#	206749
#	228350
#
# Disc length: 3249 seconds
#
# Revision: 3
# Processed by: cddbd v1.5.2PL0 Copyright (c) Steve Scherf et al.
# Submitted via: audiograbber 1.83.01
#
DISCID=9e0caf0d
DTITLE=Монгол Шуудан - Собачья чушь
DYEAR=1993
DGENRE=Alternative Rock
TTITLE0=Мама Анархия
TTITLE1=На белом коне
TTITLE2=Галя
TTITLE3=Чекист
TTITLE4=Балалайка
TTITLE5=Русиш швайн
TTITLE6=Гуляй-Поле
TTITLE7=Колыбельная
TTITLE8=Махно
TTITLE9=Сталь не пугает коня
TTITLE10=Что-то сталося со мной
TTITLE11=Продразверстка
TTITLE12=Ба-бах
EXTD=
EXTT0=
EXTT1=
EXTT2=
EXTT3=
EXTT4=
EXTT5=
EXTT6=
EXTT7=
EXTT8=
EXTT9=
EXTT10=
EXTT11=
EXTT12=
PLAYORDER=
